<svg width="1920" height="1080" viewBox="0 0 1920 1080" fill="none" xmlns="http://www.w3.org/2000/svg">
  <defs>
    <linearGradient id="bg" x1="160" y1="80" x2="1760" y2="1020" gradientUnits="userSpaceOnUse">
      <stop stop-color="#09192B"/>
      <stop offset="0.55" stop-color="#0D2540"/>
      <stop offset="1" stop-color="#081423"/>
    </linearGradient>
    <radialGradient id="glowLeft" cx="0" cy="0" r="1" gradientUnits="userSpaceOnUse" gradientTransform="translate(420 280) rotate(90) scale(360 420)">
      <stop stop-color="#4A8DFF" stop-opacity="0.42"/>
      <stop offset="1" stop-color="#4A8DFF" stop-opacity="0"/>
    </radialGradient>
    <radialGradient id="glowRight" cx="0" cy="0" r="1" gradientUnits="userSpaceOnUse" gradientTransform="translate(1500 250) rotate(90) scale(340 420)">
      <stop stop-color="#24D2C5" stop-opacity="0.24"/>
      <stop offset="1" stop-color="#24D2C5" stop-opacity="0"/>
    </radialGradient>
    <radialGradient id="glowBottom" cx="0" cy="0" r="1" gradientUnits="userSpaceOnUse" gradientTransform="translate(1260 820) rotate(90) scale(240 320)">
      <stop stop-color="#3A66FF" stop-opacity="0.28"/>
      <stop offset="1" stop-color="#3A66FF" stop-opacity="0"/>
    </radialGradient>
    <linearGradient id="panelStroke" x1="0" y1="0" x2="1" y2="1">
      <stop stop-color="white" stop-opacity="0.24"/>
      <stop offset="1" stop-color="white" stop-opacity="0.04"/>
    </linearGradient>
    <linearGradient id="lineGlow" x1="220" y1="0" x2="1720" y2="0" gradientUnits="userSpaceOnUse">
      <stop stop-color="#62A0FF" stop-opacity="0"/>
      <stop offset="0.18" stop-color="#62A0FF" stop-opacity="0.5"/>
      <stop offset="0.52" stop-color="#79E9DE" stop-opacity="0.45"/>
      <stop offset="1" stop-color="#79E9DE" stop-opacity="0"/>
    </linearGradient>
    <filter id="softBlur" x="-20%" y="-20%" width="140%" height="140%">
      <feGaussianBlur stdDeviation="18"/>
    </filter>
  </defs>

  <rect width="1920" height="1080" fill="url(#bg)"/>
  <rect width="1920" height="1080" fill="url(#glowLeft)"/>
  <rect width="1920" height="1080" fill="url(#glowRight)"/>
  <rect width="1920" height="1080" fill="url(#glowBottom)"/>

  <g opacity="0.1">
    <path d="M0 120H1920" stroke="white"/>
    <path d="M0 240H1920" stroke="white"/>
    <path d="M0 360H1920" stroke="white"/>
    <path d="M0 480H1920" stroke="white"/>
    <path d="M0 600H1920" stroke="white"/>
    <path d="M0 720H1920" stroke="white"/>
    <path d="M0 840H1920" stroke="white"/>
    <path d="M0 960H1920" stroke="white"/>
    <path d="M180 0V1080" stroke="white"/>
    <path d="M360 0V1080" stroke="white"/>
    <path d="M540 0V1080" stroke="white"/>
    <path d="M720 0V1080" stroke="white"/>
    <path d="M900 0V1080" stroke="white"/>
    <path d="M1080 0V1080" stroke="white"/>
    <path d="M1260 0V1080" stroke="white"/>
    <path d="M1440 0V1080" stroke="white"/>
    <path d="M1620 0V1080" stroke="white"/>
    <path d="M1800 0V1080" stroke="white"/>
  </g>

  <g opacity="0.75">
    <rect x="170" y="138" width="520" height="270" rx="24" fill="white" fill-opacity="0.03" stroke="url(#panelStroke)"/>
    <rect x="170" y="438" width="440" height="220" rx="24" fill="white" fill-opacity="0.025" stroke="url(#panelStroke)"/>
    <rect x="1250" y="150" width="460" height="290" rx="24" fill="white" fill-opacity="0.03" stroke="url(#panelStroke)"/>
    <rect x="1310" y="610" width="350" height="170" rx="24" fill="white" fill-opacity="0.025" stroke="url(#panelStroke)"/>
  </g>

  <g opacity="0.72">
    <path d="M230 326C330 246 434 242 520 288C612 336 692 348 810 298C928 248 1034 246 1146 326C1254 402 1392 408 1512 344C1600 296 1680 278 1750 290" stroke="url(#lineGlow)" stroke-width="3"/>
    <path d="M240 356C344 284 446 286 538 330C622 370 726 380 834 342C952 300 1060 304 1176 376C1286 444 1402 452 1518 394C1608 350 1686 334 1740 346" stroke="url(#lineGlow)" stroke-width="2" stroke-opacity="0.8"/>
  </g>

  <g>
    <circle cx="520" cy="288" r="6" fill="#7EB2FF"/>
    <circle cx="520" cy="288" r="18" fill="#7EB2FF" fill-opacity="0.22" filter="url(#softBlur)"/>
    <circle cx="810" cy="298" r="6" fill="#68E2D1"/>
    <circle cx="810" cy="298" r="18" fill="#68E2D1" fill-opacity="0.22" filter="url(#softBlur)"/>
    <circle cx="1176" cy="376" r="6" fill="#7EB2FF"/>
    <circle cx="1176" cy="376" r="18" fill="#7EB2FF" fill-opacity="0.18" filter="url(#softBlur)"/>
    <circle cx="1518" cy="394" r="6" fill="#68E2D1"/>
    <circle cx="1518" cy="394" r="18" fill="#68E2D1" fill-opacity="0.22" filter="url(#softBlur)"/>
  </g>

  <g opacity="0.8">
    <rect x="232" y="186" width="180" height="12" rx="6" fill="#7AAEFF" fill-opacity="0.24"/>
    <rect x="232" y="218" width="330" height="12" rx="6" fill="white" fill-opacity="0.1"/>
    <rect x="232" y="250" width="270" height="12" rx="6" fill="white" fill-opacity="0.08"/>
    <rect x="232" y="300" width="82" height="60" rx="14" fill="#7AAEFF" fill-opacity="0.14"/>
    <rect x="332" y="284" width="40" height="76" rx="10" fill="#61D9C9" fill-opacity="0.18"/>
    <rect x="390" y="264" width="40" height="96" rx="10" fill="#7AAEFF" fill-opacity="0.22"/>
    <rect x="448" y="236" width="40" height="124" rx="10" fill="#61D9C9" fill-opacity="0.2"/>
    <rect x="506" y="274" width="40" height="86" rx="10" fill="#7AAEFF" fill-opacity="0.12"/>
  </g>

  <g opacity="0.82">
    <rect x="1292" y="198" width="126" height="12" rx="6" fill="#61D9C9" fill-opacity="0.2"/>
    <rect x="1292" y="232" width="210" height="10" rx="5" fill="white" fill-opacity="0.09"/>
    <rect x="1292" y="262" width="336" height="112" rx="18" fill="white" fill-opacity="0.035" stroke="white" stroke-opacity="0.08"/>
    <path d="M1322 336L1384 314L1442 332L1502 286L1562 300L1602 278" stroke="#77E5D8" stroke-width="3" stroke-linecap="round" stroke-linejoin="round"/>
    <circle cx="1384" cy="314" r="5" fill="#77E5D8"/>
    <circle cx="1502" cy="286" r="5" fill="#7AAEFF"/>
  </g>

  <g opacity="0.7">
    <rect x="262" y="756" width="218" height="2" rx="1" fill="#7AAEFF" fill-opacity="0.32"/>
    <rect x="262" y="786" width="160" height="2" rx="1" fill="#7AAEFF" fill-opacity="0.18"/>
    <rect x="262" y="816" width="242" height="2" rx="1" fill="#7AAEFF" fill-opacity="0.18"/>
    <rect x="262" y="846" width="132" height="2" rx="1" fill="#61D9C9" fill-opacity="0.24"/>
    <rect x="1420" y="844" width="154" height="2" rx="1" fill="#61D9C9" fill-opacity="0.26"/>
    <rect x="1460" y="874" width="114" height="2" rx="1" fill="#7AAEFF" fill-opacity="0.18"/>
  </g>
</svg>
