<svg width="96" height="96" viewBox="0 0 96 96" fill="none" xmlns="http://www.w3.org/2000/svg">
  <rect width="96" height="96" rx="24" fill="url(#paint0_linear)"/>
  <path d="M48 18C61.2548 18 72 28.7452 72 42V45H64V42C64 33.1634 56.8366 26 48 26C39.1634 26 32 33.1634 32 42V45H24V42C24 28.7452 34.7452 18 48 18Z" fill="#A7F3D0"/>
  <path d="M18 59C18 56.7909 19.7909 55 22 55H74C76.2091 55 78 56.7909 78 59V61C78 75.9117 65.9117 88 51 88H45C30.0883 88 18 75.9117 18 61V59Z" fill="#0F172A" fill-opacity="0.28"/>
  <path d="M28 56H36L42 66L50 42L57 60L62 52L68 56" stroke="#F8FAFC" stroke-width="5" stroke-linecap="round" stroke-linejoin="round"/>
  <circle cx="48" cy="42" r="6" fill="#F8FAFC"/>
  <path d="M24 69H72" stroke="#7DD3FC" stroke-width="4" stroke-linecap="round" opacity="0.9"/>
  <defs>
    <linearGradient id="paint0_linear" x1="14" y1="10" x2="82" y2="86" gradientUnits="userSpaceOnUse">
      <stop stop-color="#0F766E"/>
      <stop offset="1" stop-color="#1D4ED8"/>
    </linearGradient>
  </defs>
</svg>
